<svg xmlns="http://www.w3.org/2000/svg" xmlns:xlink="http://www.w3.org/1999/xlink" xmlns:xodm="http://www.corel.com/coreldraw/odm/2003" width="163.84" height="163.84" version="1.1" xml:space="preserve" style="shape-rendering:geometricPrecision;text-rendering:geometricPrecision;image-rendering:optimizeQuality;fill-rule:evenodd;clip-rule:evenodd" viewBox="0 0 458.79 458.79"><defs><style type="text/css">.fil0{fill:none}.fil1{fill:#fff;fill-rule:nonzero}</style></defs><g id="Capa_x0020_1"><metadata id="CorelCorpID_0Corel-Layer"/><g id="_2715757719552"><rect width="458.79" height="458.79" x="0" y="0" class="fil0"/><g><path d="M261.5 57.07c21.29,-2.68 43.3,0.86 62.73,9.95 14.82,7.57 28.41,17.89 38.71,31.05 13.84,17.83 22.46,39.78 23.71,62.38 1.68,27.06 -6.95,54.8 -24.28,75.71 -1.6,2.69 -5.85,1.31 -5.6,-1.72 3.67,-5.56 7.89,-10.75 11.12,-16.6 11.82,-21.56 16.48,-47.3 11.09,-71.44 -4.59,-26.75 -21.16,-50.68 -43.18,-66.19 -19.98,-13.46 -44.55,-20.06 -68.57,-17.87 -17.16,1.12 -33.55,7.61 -48.01,16.66 -8.02,5 -14.36,12.08 -21.37,18.31 -1.92,2 -4.22,-0.51 -5.17,-2.21 5.01,-6.66 11.3,-12.31 18.13,-17.06 7.29,-5.09 14.68,-10.25 23.09,-13.3 8.97,-3.28 18.09,-6.46 27.62,-7.66z" class="fil1"/><path d="M235.52 95.26c16.59,-10.42 37.31,-13.02 56.37,-9.49 16.9,2.85 32.24,12.1 44.12,24.25 15.29,15.84 23.21,38.14 22.32,60.04 0.11,14.56 -4.82,28.75 -12.23,41.13 -2.27,3.68 -4.85,7.49 -8.85,9.45 -0.88,-1.22 -3.07,-2.43 -2.11,-4.2 4.75,-6.91 9.97,-13.74 12.78,-21.74 4.79,-14.09 6.78,-29.48 3.24,-44.08 -3.92,-20.11 -16.76,-38.02 -33.9,-49.04 -7.73,-5.19 -16.72,-8.06 -25.69,-10.27 -17.8,-4.17 -36.76,-0.25 -52.61,8.45 -8.06,4.43 -14.27,11.28 -21.08,17.3 -1.48,-0.92 -3.72,-1.82 -3.63,-3.92 5.54,-7.57 13.28,-13.16 21.28,-17.89z" class="fil1"/><path d="M269.06 113.96c15.09,-2.31 30.79,3.06 42.26,12.9 9.53,7.86 15.2,19.54 17.61,31.47 2.25,13.63 -1.14,28.18 -9.14,39.43 -1.44,1.55 -3.56,4.75 -5.86,2.81 -0.89,-0.83 -2.35,-2.3 -1.19,-3.51 1.67,-2.63 3.76,-4.98 5.26,-7.74 6.73,-11.36 7.15,-25.61 3.28,-38.01 -2.98,-8.79 -8.82,-16.48 -15.96,-22.32 -13.49,-10.36 -32.73,-12.74 -48.2,-5.61 -6.87,3.04 -11.82,8.84 -17.81,13.12 -1.25,-1.03 -3.42,-1.85 -3.04,-3.82 7.66,-10.55 20.28,-16.32 32.79,-18.73z" class="fil1"/><g><path d="M271.41 163.32c5.99,-1.94 12.06,-3.55 18.14,-5.23 -3.35,8.02 -8.03,15.36 -11.85,23.14 -10.61,20.94 -21.29,41.83 -31.98,62.74 -8.54,17.8 -18.23,35.03 -26.69,52.87 -10.43,19.66 -20.12,39.71 -30.44,59.43 -8.08,15.37 -15.31,31.21 -23.83,46.34 -18.4,-34.79 -35.74,-70.16 -53.73,-105.17 -13.13,-25.42 -25.83,-51.08 -39.08,-76.45 45.43,-13.22 90.87,-26.41 136.39,-39.31 20.89,-6.55 42.18,-11.77 63.08,-18.36l0 0zm-89.8 62.25c-19.4,5.46 -38.65,11.43 -58.01,17 13.78,27.18 27.18,54.57 41.38,81.54 18.67,-36.56 37.37,-73.1 56.07,-109.64 -13.3,3.15 -26.27,7.49 -39.44,11.11z" class="fil1"/></g></g></g></g></svg>